<mxfile host="app.diagrams.net" modified="2023-05-19T01:35:50.048Z" agent="Mozilla/5.0 (Windows NT 10.0; Win64; x64) AppleWebKit/537.36 (KHTML, like Gecko) Chrome/112.0.0.0 Safari/537.36 OPR/98.0.0.0" etag="eOvQuharYHieRlY7mCDh" version="21.3.2" type="device">
  <diagram name="Σελίδα-1" id="CsE6YNoTUhBlBd0UO_HM">
    <mxGraphModel dx="2466" dy="1338" grid="1" gridSize="10" guides="1" tooltips="1" connect="1" arrows="1" fold="1" page="1" pageScale="1" pageWidth="1169" pageHeight="827" math="0" shadow="0">
      <root>
        <mxCell id="0" />
        <mxCell id="1" parent="0" />
        <mxCell id="u1zgg_5FD5gQ_HjgiqYV-348" value="" style="edgeStyle=none;curved=1;rounded=0;orthogonalLoop=1;jettySize=auto;html=1;fontSize=12;startSize=8;endSize=8;strokeColor=#000000;entryX=-0.008;entryY=0.56;entryDx=0;entryDy=0;entryPerimeter=0;" edge="1" parent="1" source="u1zgg_5FD5gQ_HjgiqYV-349" target="u1zgg_5FD5gQ_HjgiqYV-352">
          <mxGeometry relative="1" as="geometry">
            <Array as="points">
              <mxPoint x="700" y="1126" />
            </Array>
            <mxPoint x="847.5" y="1126" as="targetPoint" />
          </mxGeometry>
        </mxCell>
        <mxCell id="u1zgg_5FD5gQ_HjgiqYV-349" value="Χρήστης" style="shape=umlActor;verticalLabelPosition=bottom;verticalAlign=top;html=1;outlineConnect=0;fontSize=16;" vertex="1" parent="1">
          <mxGeometry x="670" y="1090" width="30" height="60" as="geometry" />
        </mxCell>
        <mxCell id="u1zgg_5FD5gQ_HjgiqYV-350" value="&lt;font&gt;Εμφάνισε&lt;/font&gt;" style="ellipse;shape=umlControl;whiteSpace=wrap;html=1;fontSize=16;strokeColor=#000000;fontColor=#000000;" vertex="1" parent="1">
          <mxGeometry x="1150" y="840" width="70" height="80" as="geometry" />
        </mxCell>
        <mxCell id="u1zgg_5FD5gQ_HjgiqYV-351" value="" style="edgeStyle=none;curved=1;rounded=0;orthogonalLoop=1;jettySize=auto;html=1;fontSize=12;startSize=8;endSize=8;strokeColor=#000000;exitX=0.189;exitY=0.947;exitDx=0;exitDy=0;exitPerimeter=0;entryX=0.87;entryY=0.058;entryDx=0;entryDy=0;entryPerimeter=0;" edge="1" parent="1" source="u1zgg_5FD5gQ_HjgiqYV-350" target="u1zgg_5FD5gQ_HjgiqYV-352">
          <mxGeometry relative="1" as="geometry">
            <Array as="points" />
            <mxPoint x="1090" y="1030" as="targetPoint" />
            <mxPoint x="1094.5" y="1100" as="sourcePoint" />
          </mxGeometry>
        </mxCell>
        <mxCell id="u1zgg_5FD5gQ_HjgiqYV-352" value="&lt;font style=&quot;font-size: 14px;&quot;&gt;Σελίδα επιλογής διατροφολόγου&lt;/font&gt;" style="shape=umlBoundary;whiteSpace=wrap;html=1;fontSize=16;strokeColor=#000000;fontColor=#000000;" vertex="1" parent="1">
          <mxGeometry x="990" y="1040" width="130" height="110" as="geometry" />
        </mxCell>
        <mxCell id="u1zgg_5FD5gQ_HjgiqYV-353" value="&lt;font&gt;Λίστα διατροφολόγων&lt;/font&gt;" style="ellipse;shape=umlEntity;whiteSpace=wrap;html=1;strokeColor=#000000;fontColor=#000000;" vertex="1" parent="1">
          <mxGeometry x="1310" y="720" width="85" height="80" as="geometry" />
        </mxCell>
        <mxCell id="u1zgg_5FD5gQ_HjgiqYV-354" value="" style="edgeStyle=none;curved=1;rounded=0;orthogonalLoop=1;jettySize=auto;html=1;fontSize=12;startSize=8;endSize=8;strokeColor=#000000;exitX=0.856;exitY=0.227;exitDx=0;exitDy=0;exitPerimeter=0;entryX=0.066;entryY=0.757;entryDx=0;entryDy=0;entryPerimeter=0;" edge="1" parent="1" source="u1zgg_5FD5gQ_HjgiqYV-350" target="u1zgg_5FD5gQ_HjgiqYV-353">
          <mxGeometry relative="1" as="geometry">
            <Array as="points" />
            <mxPoint x="1113" y="1056" as="targetPoint" />
            <mxPoint x="1173" y="926" as="sourcePoint" />
          </mxGeometry>
        </mxCell>
        <mxCell id="u1zgg_5FD5gQ_HjgiqYV-355" value="&lt;font style=&quot;font-size: 17px;&quot;&gt;Επιλογή διατροφολόγου&lt;/font&gt;" style="edgeLabel;html=1;align=center;verticalAlign=middle;resizable=0;points=[];fontSize=17;fontColor=#000000;" vertex="1" connectable="0" parent="1">
          <mxGeometry x="849.9956706910107" y="1095.0023266826681" as="geometry" />
        </mxCell>
        <mxCell id="u1zgg_5FD5gQ_HjgiqYV-356" value="" style="endArrow=classic;html=1;rounded=0;exitX=1.008;exitY=0.462;exitDx=0;exitDy=0;exitPerimeter=0;entryX=-0.001;entryY=0.566;entryDx=0;entryDy=0;entryPerimeter=0;" edge="1" parent="1" source="u1zgg_5FD5gQ_HjgiqYV-352" target="u1zgg_5FD5gQ_HjgiqYV-357">
          <mxGeometry width="50" height="50" relative="1" as="geometry">
            <mxPoint x="1220" y="1110" as="sourcePoint" />
            <mxPoint x="1290" y="1090" as="targetPoint" />
          </mxGeometry>
        </mxCell>
        <mxCell id="u1zgg_5FD5gQ_HjgiqYV-357" value="&lt;font&gt;Έχει γίνει ραντεβού στο παρελθόν;&lt;/font&gt;" style="ellipse;shape=umlControl;whiteSpace=wrap;html=1;fontSize=16;strokeColor=#000000;fontColor=#000000;" vertex="1" parent="1">
          <mxGeometry x="1320" y="1039" width="100" height="111" as="geometry" />
        </mxCell>
        <mxCell id="u1zgg_5FD5gQ_HjgiqYV-358" value="" style="edgeStyle=none;curved=1;rounded=0;orthogonalLoop=1;jettySize=auto;html=1;fontSize=12;startSize=8;endSize=8;strokeColor=#000000;exitX=0.875;exitY=0.288;exitDx=0;exitDy=0;exitPerimeter=0;entryX=0;entryY=1;entryDx=0;entryDy=0;" edge="1" parent="1" source="u1zgg_5FD5gQ_HjgiqYV-357" target="u1zgg_5FD5gQ_HjgiqYV-359">
          <mxGeometry relative="1" as="geometry">
            <Array as="points" />
            <mxPoint x="1440" y="950" as="targetPoint" />
            <mxPoint x="1390" y="1047" as="sourcePoint" />
          </mxGeometry>
        </mxCell>
        <mxCell id="u1zgg_5FD5gQ_HjgiqYV-359" value="&lt;font&gt;Λίστα &quot;Τα ραντεβού μου&quot;&lt;/font&gt;" style="ellipse;shape=umlEntity;whiteSpace=wrap;html=1;strokeColor=#000000;fontColor=#000000;" vertex="1" parent="1">
          <mxGeometry x="1460" y="900" width="85" height="80" as="geometry" />
        </mxCell>
        <mxCell id="u1zgg_5FD5gQ_HjgiqYV-360" value="&lt;font&gt;Εμφάνισε&lt;/font&gt;" style="ellipse;shape=umlControl;whiteSpace=wrap;html=1;fontSize=16;strokeColor=#000000;fontColor=#000000;" vertex="1" parent="1">
          <mxGeometry x="1200" y="1160" width="70" height="80" as="geometry" />
        </mxCell>
        <mxCell id="u1zgg_5FD5gQ_HjgiqYV-361" value="" style="edgeStyle=none;curved=1;rounded=0;orthogonalLoop=1;jettySize=auto;html=1;fontSize=12;startSize=8;endSize=8;strokeColor=#000000;exitX=0.342;exitY=0.978;exitDx=0;exitDy=0;exitPerimeter=0;entryX=0.913;entryY=0.318;entryDx=0;entryDy=0;entryPerimeter=0;" edge="1" parent="1" source="u1zgg_5FD5gQ_HjgiqYV-357" target="u1zgg_5FD5gQ_HjgiqYV-360">
          <mxGeometry relative="1" as="geometry">
            <Array as="points" />
            <mxPoint x="1280" y="1200" as="targetPoint" />
            <mxPoint x="1370" y="1230" as="sourcePoint" />
          </mxGeometry>
        </mxCell>
        <mxCell id="u1zgg_5FD5gQ_HjgiqYV-362" value="&lt;font&gt;Ναι&lt;/font&gt;" style="edgeLabel;html=1;align=center;verticalAlign=middle;resizable=0;points=[];fontSize=16;fontColor=#000000;" vertex="1" connectable="0" parent="1">
          <mxGeometry x="1184.996500555441" y="1319.996626436654" as="geometry">
            <mxPoint x="126" y="-149" as="offset" />
          </mxGeometry>
        </mxCell>
        <mxCell id="u1zgg_5FD5gQ_HjgiqYV-363" value="&lt;font style=&quot;font-size: 14px;&quot;&gt;Σελίδα αξιολόγησης διατροφολόγου&lt;/font&gt;" style="shape=umlBoundary;whiteSpace=wrap;html=1;fontSize=16;strokeColor=#000000;fontColor=#000000;" vertex="1" parent="1">
          <mxGeometry x="980" y="1220" width="130" height="110" as="geometry" />
        </mxCell>
        <mxCell id="u1zgg_5FD5gQ_HjgiqYV-364" value="" style="edgeStyle=none;curved=1;rounded=0;orthogonalLoop=1;jettySize=auto;html=1;fontSize=12;startSize=8;endSize=8;strokeColor=#000000;exitX=-0.027;exitY=0.655;exitDx=0;exitDy=0;exitPerimeter=0;entryX=1.018;entryY=0.434;entryDx=0;entryDy=0;entryPerimeter=0;" edge="1" parent="1" source="u1zgg_5FD5gQ_HjgiqYV-360" target="u1zgg_5FD5gQ_HjgiqYV-363">
          <mxGeometry relative="1" as="geometry">
            <Array as="points" />
            <mxPoint x="1140" y="1370" as="targetPoint" />
            <mxPoint x="1200" y="1240" as="sourcePoint" />
          </mxGeometry>
        </mxCell>
        <mxCell id="u1zgg_5FD5gQ_HjgiqYV-365" value="" style="edgeStyle=none;curved=1;rounded=0;orthogonalLoop=1;jettySize=auto;html=1;fontSize=12;startSize=8;endSize=8;strokeColor=#000000;entryX=0.231;entryY=0.182;entryDx=0;entryDy=0;entryPerimeter=0;" edge="1" parent="1" source="u1zgg_5FD5gQ_HjgiqYV-349" target="u1zgg_5FD5gQ_HjgiqYV-363">
          <mxGeometry relative="1" as="geometry">
            <Array as="points" />
            <mxPoint x="999" y="1112" as="targetPoint" />
            <mxPoint x="710" y="1136" as="sourcePoint" />
          </mxGeometry>
        </mxCell>
        <mxCell id="u1zgg_5FD5gQ_HjgiqYV-366" value="&lt;font style=&quot;font-size: 16px;&quot;&gt;Συμπλήρωση φόρμας και επιλογή υποβολής&lt;/font&gt;" style="edgeLabel;html=1;align=center;verticalAlign=middle;resizable=0;points=[];fontSize=16;fontColor=#000000;" vertex="1" connectable="0" parent="1">
          <mxGeometry x="889.9956706910107" y="1180.0023266826681" as="geometry" />
        </mxCell>
        <mxCell id="u1zgg_5FD5gQ_HjgiqYV-367" value="" style="endArrow=classic;html=1;rounded=0;exitX=1.005;exitY=0.628;exitDx=0;exitDy=0;exitPerimeter=0;entryX=0.013;entryY=0.444;entryDx=0;entryDy=0;entryPerimeter=0;" edge="1" parent="1" source="u1zgg_5FD5gQ_HjgiqYV-363" target="u1zgg_5FD5gQ_HjgiqYV-368">
          <mxGeometry width="50" height="50" relative="1" as="geometry">
            <mxPoint x="1135.5" y="1320" as="sourcePoint" />
            <mxPoint x="1280" y="1340" as="targetPoint" />
          </mxGeometry>
        </mxCell>
        <mxCell id="u1zgg_5FD5gQ_HjgiqYV-368" value="&lt;font&gt;Είναι έγκυρα τα στοιχεία της φόρμας ;&lt;/font&gt;" style="ellipse;shape=umlControl;whiteSpace=wrap;html=1;fontSize=16;strokeColor=#000000;fontColor=#000000;" vertex="1" parent="1">
          <mxGeometry x="1275" y="1310" width="110" height="120" as="geometry" />
        </mxCell>
        <mxCell id="u1zgg_5FD5gQ_HjgiqYV-369" value="" style="edgeStyle=none;curved=1;rounded=0;orthogonalLoop=1;jettySize=auto;html=1;fontSize=12;startSize=8;endSize=8;strokeColor=#000000;exitX=1.039;exitY=0.616;exitDx=0;exitDy=0;exitPerimeter=0;entryX=-0.009;entryY=0.53;entryDx=0;entryDy=0;entryPerimeter=0;" edge="1" parent="1" source="u1zgg_5FD5gQ_HjgiqYV-368" target="u1zgg_5FD5gQ_HjgiqYV-373">
          <mxGeometry relative="1" as="geometry">
            <Array as="points" />
            <mxPoint x="1510" y="1350" as="targetPoint" />
            <mxPoint x="1485" y="1370" as="sourcePoint" />
          </mxGeometry>
        </mxCell>
        <mxCell id="u1zgg_5FD5gQ_HjgiqYV-370" value="&lt;font&gt;Ναι&lt;/font&gt;" style="edgeLabel;html=1;align=center;verticalAlign=middle;resizable=0;points=[];fontSize=16;fontColor=#000000;" vertex="1" connectable="0" parent="1">
          <mxGeometry x="1329.996500555441" y="1519.996626436654" as="geometry">
            <mxPoint x="126" y="-149" as="offset" />
          </mxGeometry>
        </mxCell>
        <mxCell id="u1zgg_5FD5gQ_HjgiqYV-371" value="" style="edgeStyle=none;curved=1;rounded=0;orthogonalLoop=1;jettySize=auto;html=1;fontSize=12;startSize=8;endSize=8;strokeColor=#000000;exitX=0.047;exitY=0.773;exitDx=0;exitDy=0;exitPerimeter=0;entryX=0.941;entryY=0.375;entryDx=0;entryDy=0;entryPerimeter=0;" edge="1" parent="1" source="u1zgg_5FD5gQ_HjgiqYV-368" target="u1zgg_5FD5gQ_HjgiqYV-372">
          <mxGeometry relative="1" as="geometry">
            <Array as="points" />
            <mxPoint x="1160" y="1410" as="targetPoint" />
            <mxPoint x="1228" y="1380" as="sourcePoint" />
          </mxGeometry>
        </mxCell>
        <mxCell id="u1zgg_5FD5gQ_HjgiqYV-372" value="Φόρμα αξιολόγησης" style="ellipse;shape=umlEntity;whiteSpace=wrap;html=1;strokeColor=#000000;fontColor=#000000;fontSize=14;" vertex="1" parent="1">
          <mxGeometry x="1095" y="1380" width="85" height="80" as="geometry" />
        </mxCell>
        <mxCell id="u1zgg_5FD5gQ_HjgiqYV-373" value="&lt;font&gt;Εμφάνισε&lt;br&gt;μήνυμα για επιτυχή υποβολή αξιολόγησης&lt;br&gt;&lt;/font&gt;" style="ellipse;shape=umlControl;whiteSpace=wrap;html=1;fontSize=16;strokeColor=#000000;fontColor=#000000;" vertex="1" parent="1">
          <mxGeometry x="1545" y="1310" width="130" height="140" as="geometry" />
        </mxCell>
        <mxCell id="u1zgg_5FD5gQ_HjgiqYV-374" value="" style="edgeStyle=none;curved=1;rounded=0;orthogonalLoop=1;jettySize=auto;html=1;fontSize=12;startSize=8;endSize=8;strokeColor=#000000;exitX=1;exitY=0.6;exitDx=0;exitDy=0;exitPerimeter=0;entryX=0;entryY=0.533;entryDx=0;entryDy=0;entryPerimeter=0;" edge="1" parent="1" source="u1zgg_5FD5gQ_HjgiqYV-373" target="u1zgg_5FD5gQ_HjgiqYV-375">
          <mxGeometry relative="1" as="geometry">
            <Array as="points" />
            <mxPoint x="1800" y="1364" as="targetPoint" />
            <mxPoint x="1650" y="1360" as="sourcePoint" />
          </mxGeometry>
        </mxCell>
        <mxCell id="u1zgg_5FD5gQ_HjgiqYV-375" value="&lt;font style=&quot;font-size: 15px;&quot;&gt;Υπολογισμός και ανανέωση σκορ αξιολόγησης διατροφολόγου&lt;/font&gt;" style="ellipse;shape=umlControl;whiteSpace=wrap;html=1;fontSize=15;strokeColor=#000000;fontColor=#000000;" vertex="1" parent="1">
          <mxGeometry x="1790" y="1300" width="130" height="140" as="geometry" />
        </mxCell>
        <mxCell id="u1zgg_5FD5gQ_HjgiqYV-376" value="&lt;font&gt;Λίστα διατροφολόγων&lt;/font&gt;" style="ellipse;shape=umlEntity;whiteSpace=wrap;html=1;strokeColor=#000000;fontColor=#000000;" vertex="1" parent="1">
          <mxGeometry x="1850" y="1120" width="85" height="80" as="geometry" />
        </mxCell>
        <mxCell id="u1zgg_5FD5gQ_HjgiqYV-377" value="" style="edgeStyle=none;curved=1;rounded=0;orthogonalLoop=1;jettySize=auto;html=1;fontSize=12;startSize=8;endSize=8;strokeColor=#000000;exitX=0.661;exitY=0.113;exitDx=0;exitDy=0;exitPerimeter=0;entryX=0.5;entryY=1;entryDx=0;entryDy=0;" edge="1" parent="1" source="u1zgg_5FD5gQ_HjgiqYV-375" target="u1zgg_5FD5gQ_HjgiqYV-376">
          <mxGeometry relative="1" as="geometry">
            <Array as="points" />
            <mxPoint x="1900" y="1241" as="targetPoint" />
            <mxPoint x="1730" y="1240" as="sourcePoint" />
          </mxGeometry>
        </mxCell>
        <mxCell id="u1zgg_5FD5gQ_HjgiqYV-378" value="Όχι" style="edgeLabel;html=1;align=center;verticalAlign=middle;resizable=0;points=[];fontSize=16;fontColor=#000000;" vertex="1" connectable="0" parent="1">
          <mxGeometry x="1259.996500555441" y="1459.996626436654" as="geometry">
            <mxPoint x="126" y="-149" as="offset" />
          </mxGeometry>
        </mxCell>
        <mxCell id="u1zgg_5FD5gQ_HjgiqYV-379" value="&lt;font&gt;Εμφάνισε&lt;br&gt;μήνυμα σφάλματος&lt;br&gt;&lt;/font&gt;" style="ellipse;shape=umlControl;whiteSpace=wrap;html=1;fontSize=16;strokeColor=#000000;fontColor=#E6E6E6;fillColor=#FF0000;" vertex="1" parent="1">
          <mxGeometry x="1290" y="890" width="95" height="100" as="geometry" />
        </mxCell>
        <mxCell id="u1zgg_5FD5gQ_HjgiqYV-380" value="" style="edgeStyle=none;curved=1;rounded=0;orthogonalLoop=1;jettySize=auto;html=1;fontSize=12;startSize=8;endSize=8;strokeColor=#FF3333;exitX=0.283;exitY=0.152;exitDx=0;exitDy=0;exitPerimeter=0;entryX=0.614;entryY=1.015;entryDx=0;entryDy=0;entryPerimeter=0;" edge="1" parent="1" source="u1zgg_5FD5gQ_HjgiqYV-357" target="u1zgg_5FD5gQ_HjgiqYV-379">
          <mxGeometry relative="1" as="geometry">
            <Array as="points" />
            <mxPoint x="1580" y="1080" as="targetPoint" />
            <mxPoint x="1420" y="1130" as="sourcePoint" />
          </mxGeometry>
        </mxCell>
        <mxCell id="u1zgg_5FD5gQ_HjgiqYV-381" value="" style="endArrow=classic;html=1;rounded=0;exitX=0.111;exitY=0.315;exitDx=0;exitDy=0;exitPerimeter=0;entryX=0.929;entryY=0.796;entryDx=0;entryDy=0;entryPerimeter=0;strokeColor=#FF0000;" edge="1" parent="1" source="u1zgg_5FD5gQ_HjgiqYV-379" target="u1zgg_5FD5gQ_HjgiqYV-350">
          <mxGeometry width="50" height="50" relative="1" as="geometry">
            <mxPoint x="1135.5" y="840" as="sourcePoint" />
            <mxPoint x="1334.5" y="851" as="targetPoint" />
          </mxGeometry>
        </mxCell>
        <mxCell id="u1zgg_5FD5gQ_HjgiqYV-382" value="Όχι" style="edgeLabel;html=1;align=center;verticalAlign=middle;resizable=0;points=[];fontSize=16;fontColor=#000000;" vertex="1" connectable="0" parent="1">
          <mxGeometry x="1209.996500555441" y="1190.006626436654" as="geometry">
            <mxPoint x="126" y="-149" as="offset" />
          </mxGeometry>
        </mxCell>
        <mxCell id="u1zgg_5FD5gQ_HjgiqYV-383" value="" style="edgeStyle=none;curved=1;rounded=0;orthogonalLoop=1;jettySize=auto;html=1;fontSize=12;startSize=8;endSize=8;strokeColor=#FF3333;exitX=0.753;exitY=0.179;exitDx=0;exitDy=0;exitPerimeter=0;entryX=0.31;entryY=1.003;entryDx=0;entryDy=0;entryPerimeter=0;" edge="1" parent="1" source="u1zgg_5FD5gQ_HjgiqYV-368" target="u1zgg_5FD5gQ_HjgiqYV-384">
          <mxGeometry relative="1" as="geometry">
            <Array as="points" />
            <mxPoint x="1288" y="1283" as="targetPoint" />
            <mxPoint x="1384" y="1260" as="sourcePoint" />
          </mxGeometry>
        </mxCell>
        <mxCell id="u1zgg_5FD5gQ_HjgiqYV-384" value="&lt;font&gt;Εμφάνισε&lt;br&gt;μήνυμα σφάλματος&lt;br&gt;&lt;/font&gt;" style="ellipse;shape=umlControl;whiteSpace=wrap;html=1;fontSize=16;strokeColor=#000000;fontColor=#FFFFFF;fillColor=#FF0000;" vertex="1" parent="1">
          <mxGeometry x="1360" y="1170" width="95" height="100" as="geometry" />
        </mxCell>
        <mxCell id="u1zgg_5FD5gQ_HjgiqYV-385" value="" style="edgeStyle=none;curved=1;rounded=0;orthogonalLoop=1;jettySize=auto;html=1;fontSize=12;startSize=8;endSize=8;strokeColor=#FF3333;exitX=0.006;exitY=0.659;exitDx=0;exitDy=0;exitPerimeter=0;entryX=0.976;entryY=0.727;entryDx=0;entryDy=0;entryPerimeter=0;" edge="1" parent="1" source="u1zgg_5FD5gQ_HjgiqYV-384" target="u1zgg_5FD5gQ_HjgiqYV-360">
          <mxGeometry relative="1" as="geometry">
            <Array as="points" />
            <mxPoint x="1290" y="1230" as="targetPoint" />
            <mxPoint x="1259" y="1291" as="sourcePoint" />
          </mxGeometry>
        </mxCell>
      </root>
    </mxGraphModel>
  </diagram>
</mxfile>
